<svg xmlns="http://www.w3.org/2000/svg" xmlns:xlink="http://www.w3.org/1999/xlink" style="display: none;">

  <!-- Icon 1 -->
  <symbol id="icon-1" viewBox="0 0 32 37">
    <g id="icon-1.svg" transform="translate(-38 -1799)">
      <path id="Color_Overlay" data-name="Color Overlay" d="M38,1820.142A15.931,15.931,0,0,1,54,1836,15.931,15.931,0,0,1,38,1820.142Zm32,0A15.932,15.932,0,0,1,54,1836,15.931,15.931,0,0,1,70,1820.142Zm-20.445-.881.035-.334a4.449,4.449,0,0,1-6.959-3.63,4.363,4.363,0,0,0,0-7.928,4.45,4.45,0,0,1,6.959-3.63l-.035-.336a4.445,4.445,0,0,1,8.889,0l-.036.336a4.472,4.472,0,0,1,2.515-.775,4.388,4.388,0,0,1,1.9,8.369,4.378,4.378,0,0,1,2.543,3.964,4.449,4.449,0,0,1-6.96,3.63l.036.334a4.445,4.445,0,0,1-8.889,0Zm0-7.927A4.445,4.445,0,1,0,54,1806.928,4.428,4.428,0,0,0,49.555,1811.334Z" fill="#63d1bb"/>
    </g>
  </symbol>

  <!-- Icon 3 -->
  <symbol id="icon-3" viewBox="0 0 47 27">
    <g id="icon-3.svg" transform="translate(-30 -1923)">
      <path id="Color_Overlay" data-name="Color Overlay" d="M33.939,1950A3.9,3.9,0,0,1,30,1946.142v-19.284A3.9,3.9,0,0,1,33.939,1923h39.12a3.9,3.9,0,0,1,3.94,3.857v19.284a3.9,3.9,0,0,1-3.94,3.857Zm-.888-2.352H73.62v-21.964H33.051Zm3.94-3.857v-14.248h32.69v14.248Zm11.146-7.125a5.365,5.365,0,1,0,5.364-5.25A5.308,5.308,0,0,0,48.137,1936.666Z" fill="#63d1bb"/>
    </g>
  </symbol>

  <!-- Icon 5 -->
  <symbol id="icon-5" viewBox="0 0 34 27">
    <g id="icon-5.svg" transform="translate(-37 -2051)">
      <path id="Color_Overlay" data-name="Color Overlay" d="M37,2059.467A8.739,8.739,0,0,1,45.987,2051,9.05,9.05,0,0,1,54,2055.646,9.049,9.049,0,0,1,62.013,2051,8.739,8.739,0,0,1,71,2059.467C71,2068.356,55.922,2078,54,2078S37,2068.313,37,2059.467Z" fill="#63d1bb"/>
    </g>
  </symbol>

  <!-- Icon 2 -->
  <symbol id="icon-2" viewBox="0 0 35 34.001">
    <g id="icon-2.svg" transform="translate(-33 -2170.999)">
      <path id="Color_Overlay" data-name="Color Overlay" d="M42.377,2203.062l7.773-5.883,8.244,6a17.983,17.983,0,0,1-16.017-.113Zm9.555-7.232,1.782-1.348,8.478,6.166q-.451.4-.937.763c-.275.208-.553.4-.835.593Zm-13.279,4.685L65.888,2179.9a16.861,16.861,0,0,1,.94,1.973l-26.437,20.009A17.451,17.451,0,0,1,38.653,2200.514Zm16.843-7.382,1.782-1.348,7.777,5.658a16.813,16.813,0,0,1-1.319,1.683Zm-18.8,5.316q-.459-.572-.859-1.17l27.511-20.822q.5.524.956,1.094c.146.181.284.363.42.547l-27.586,20.879C36.988,2198.8,36.84,2198.629,36.7,2198.449Zm22.364-8.013,1.782-1.348,6.188,4.5a16.7,16.7,0,0,1-.871,2.012ZM33.9,2193.381l26.034-19.7a17.277,17.277,0,0,1,1.823,1.3l-27,20.44A16.658,16.658,0,0,1,33.9,2193.381Zm28.725-5.641,4.9-3.708a16.581,16.581,0,0,1,.128,7.363Zm-29.33-2.823,4.2,3.057-4.2,3.175A16.554,16.554,0,0,1,33.292,2184.917Zm.58-2.222a16.88,16.88,0,0,1,.841-2.033l6.347,4.615-1.782,1.348Zm1.912-3.9a17,17,0,0,1,1.292-1.7l7.547,5.489-1.781,1.348Zm2.8-3.249c.369-.332.753-.652,1.156-.957.193-.146.387-.285.584-.422l7.857,5.715-1.781,1.349Zm3.729-2.577a17.985,17.985,0,0,1,15.532-.4l-7.881,5.967Z" fill="#63d1bb"/>
    </g>
  </symbol>

  <!-- Icon 4 -->
  <symbol id="icon-4" viewBox="0 0 55 23">
    <g id="icon-4.svg" transform="translate(-24 -2295)">
      <path id="Color_Overlay" data-name="Color Overlay" d="M24,2318l5.9-6.138,8.758.005a24.692,24.692,0,0,1-7.039-3.49l0-3.748a22.338,22.338,0,0,1,6.864-3.488H29.9l-5.9-6.135L37.668,2295l6.889,4.631a48.317,48.317,0,0,1,7.831-.617,50.016,50.016,0,0,1,12.552,1.651,9.716,9.716,0,0,0,0,11.668,50.124,50.124,0,0,1-12.552,1.654,46.177,46.177,0,0,1-7.8-.644L37.665,2318Zm42.421-11.5a7.684,7.684,0,0,1,1.994-4.8A49.822,49.822,0,0,1,79,2306.5a49.771,49.771,0,0,1-10.581,4.8A7.64,7.64,0,0,1,66.421,2306.494Z" fill="#63d1bb"/>
    </g>
  </symbol>

  <!-- Icon 6 -->
  <symbol id="icon-6" viewBox="0 0 33 32">
    <g id="icon-6.svg" transform="translate(-33 -2416)">
      <path id="Color_Overlay" data-name="Color Overlay" d="M50.448,2448v-13.7H63.082V2448Zm-14.523,0v-13.7H48.555V2448Zm14.522-15.892v-7.375H48.553v7.375H33V2426.3a1.587,1.587,0,0,1,1.607-1.566h6.655a6.567,6.567,0,0,1-2.66-2.214,3.959,3.959,0,0,1-.657-2.155,4.237,4.237,0,0,1,1.427-3.088A4.765,4.765,0,0,1,42.561,2416a6.178,6.178,0,0,1,3.356,1.053,9.649,9.649,0,0,1,2.522,2.474,12.617,12.617,0,0,1,1.052,1.765c.037-.077.076-.155.116-.232a10.544,10.544,0,0,1,3.459-4.008A6.141,6.141,0,0,1,56.421,2416a4.7,4.7,0,0,1,3.046,1.1,3.761,3.761,0,0,1,1.374,2.858A4.96,4.96,0,0,1,58.4,2423.9a10.866,10.866,0,0,1-1.411.832H64.4A1.583,1.583,0,0,1,66,2426.3v5.809Zm3.909-13.169a7.381,7.381,0,0,0-1.907,1.887,10.311,10.311,0,0,0-1.6,3.467,16.266,16.266,0,0,0,6.19-2.231c1.206-.86,1.478-1.6,1.481-2.1a1.53,1.53,0,0,0-.579-1.154,2.36,2.36,0,0,0-1.51-.541h-.005A3.788,3.788,0,0,0,54.356,2418.939Zm-13.384-.014a2,2,0,0,0-.7,1.439,1.725,1.725,0,0,0,.3.948,3.755,3.755,0,0,0,1.232,1.118,15.291,15.291,0,0,0,6.294,1.7,10.088,10.088,0,0,0-.8-2.055,8.3,8.3,0,0,0-2.67-3.139,3.8,3.8,0,0,0-2.067-.671h-.014A2.421,2.421,0,0,0,40.972,2418.925Z" fill="#63d1bb"/>
    </g>
  </symbol>
</svg>
