<svg xmlns="http://www.w3.org/2000/svg" width="20.999" height="18" viewBox="0 0 20.999 18">
  <g id="cart.svg" transform="translate(0 0)" opacity="0.2">
    <path id="Контур_84" data-name="Контур 84" d="M20.223,6.9h-3.26L13.437.4A.807.807,0,0,0,12.4.075a.69.69,0,0,0-.347.961L15.228,6.9H5.772L8.951,1.036A.692.692,0,0,0,8.6.075.809.809,0,0,0,7.562.4L4.037,6.9H.776a.719.719,0,1,0,0,1.432H.939l.885,2.857a.691.691,0,0,0-.327.568.739.739,0,0,0,.721.706L3.931,18H17.069l1.713-5.534a.738.738,0,0,0,.722-.706.691.691,0,0,0-.327-.569l.884-2.856h.162a.719.719,0,1,0,0-1.432ZM15.9,16.568H5.1L3.836,12.477H17.165Zm1.71-5.523H3.392L2.554,8.335H18.447Z" fill="#231f20"/>
  </g>
</svg>
