<svg xmlns="http://www.w3.org/2000/svg" width="149" height="72.001" viewBox="0 0 149 72.001"><g transform="translate(-0.001 0.001)"><path d="M144.084,31.092a39.412,39.412,0,0,1-4.687,2.75,16.894,16.894,0,0,0-.595-5.077c.051-.33.1-.661.146-.992.377-2.976.661-7.053-2.016-9.134-.336-.262-1.256-.035-1.934.271a4.754,4.754,0,0,0-.5-.411c-.083-.24-.16-.482-.23-.728-.035-.119-.169-.186-.362-.213.287-.379.264-.81-.422-1.081-.38-.151-.764-.284-1.15-.409-.067-.071-.128-.1-.173-.057l-.006,0a22.533,22.533,0,0,0-2.877-.7,5.06,5.06,0,0,1,.556-.99,4.925,4.925,0,0,1,.432-.435c.062-.056.126-.11.189-.163.032-.027.053-.046.069-.06l.085-.061c.381-.285.851-.857.222-1.19a2.146,2.146,0,0,0-2.021.236,6.539,6.539,0,0,0-2.105,2.338,51.2,51.2,0,0,0-6.117-.077.747.747,0,0,0,.142-.248c.185-.579-.914-.52-1.2-.483q-2.358.3-4.718.6c1.376-3.736,3.1-8.495,1.007-12.145-1.2-2.086-3.931-2.554-6.137-2.626a13.988,13.988,0,0,0-7.081,1.62c-4.794,2.593-7.156,7.635-8.263,13.01a1.868,1.868,0,0,0-2.661.463c-.126.317-.231.639-.33.963a1.426,1.426,0,0,0-.347.631c-.015.055-.027.11-.041.165l-.2.007c.02-.1.041-.2.064-.307a.677.677,0,0,0,.281-.362c.578-2.274,1.164-4.543,1.962-6.754.271-.749-2.527-.4-2.822.422-.427,1.181-.79,2.38-1.126,3.587a.91.91,0,0,0-.429.323c-.018.034-.031.069-.047.1a.917.917,0,0,0-.47-.176v-.95c0-.428-2.84-.034-2.84.75v1.553a2.39,2.39,0,0,0-.476.263c-.062.056-.128.113-.19.17a.371.371,0,0,0-.121.243.684.684,0,0,1-.023.077.65.65,0,0,1-.052.065.305.305,0,0,0-.027.462,1.155,1.155,0,0,0,.742.157c.049,0,.1-.007.148-.011v.463c-.228,0-.453,0-.679-.006l-.414-.051c-.021-.381-.68-.448-1.361-.325a.511.511,0,0,0,0-.147c-.1-.589-.174-1.18-.23-1.773a3.137,3.137,0,0,0,.685-.31c.159-.1.329-.222.329-.426v-.192c0-.178-.414-.2-.5-.206a2.9,2.9,0,0,0-.593.041c-.075-1.292-.082-2.59-.082-3.887,0-.832-2.842-.312-2.84.75a50.129,50.129,0,0,0,.193,5.291,2.551,2.551,0,0,0-.273.009V14.2c0-1.035-1.3-1.208-2.16-.8a.955.955,0,0,0,.372-1.029,29.716,29.716,0,0,1-.98-4.245c-.189-1.38-3.036-.67-2.842.749a29.448,29.448,0,0,0,.981,4.245c.237.82,1.347.88,2.116.505a.979.979,0,0,0-.375.753V15a1.68,1.68,0,0,0-.774-.158c-1.064,0-1.682.876-1.409,1.463-.165-.027-.329-.053-.494-.082a13.767,13.767,0,0,1-.719-3.793c-.02-.933-1.278-1.039-2.122-.665a.559.559,0,0,0-.049-.166,12.723,12.723,0,0,1-.785-2.508c-.334-1.337-3.178-.6-2.841.749a19.325,19.325,0,0,0,.522,1.88l-.056.014a2.689,2.689,0,0,0-.859.383c-.837.078-1.84.56-1.763,1.2.058.473.132.944.21,1.413q-.824.135-1.65.257a11.636,11.636,0,0,1-.622-2.419c-.132-.915-1.565-.846-2.347-.257A22.231,22.231,0,0,0,57.784,6.6C55.147,3.192,50.642,2.029,46.47,2.84a9.079,9.079,0,0,0-5.075,2.62,5.809,5.809,0,0,0-1.178,4.758,18.694,18.694,0,0,0,1.594,5.918,2.521,2.521,0,0,0-.955.138c-.285.116-.565.246-.838.384-1.951.029-3.9.019-5.84-.069-4.206-.192-8.354-.852-12.577-.735-.929.026-1.544.712-1.474,1.25a4.3,4.3,0,0,0-2.157,2.265,54.521,54.521,0,0,0-5.369-3.18c-.693-.348-3.321.7-2.3,1.212a53.63,53.63,0,0,1,5.312,3.185,2.233,2.233,0,0,0,1.854-.069c.03-.012.091-.039.166-.076a9.478,9.478,0,0,0,.243,4.449.558.558,0,0,0,.173.267,9.051,9.051,0,0,0-.007,1.005c0,.054,0,.108,0,.163a1.2,1.2,0,0,0-.765.831,36.434,36.434,0,0,0-.307,4.188,1.076,1.076,0,0,0-.488.79,48.634,48.634,0,0,0,.47,9.853,70.953,70.953,0,0,0,1.18,7.92q.088.618.168,1.238a9.457,9.457,0,0,0-.239,3.448c-.887.169-1.74.858-1.241,1.6a9.072,9.072,0,0,0,2.623,2.623,2.348,2.348,0,0,0-1.883.55c-.823.8-1.726,1.516-2.549,2.316-.432.42-.316.926.291,1.068a2.344,2.344,0,0,0,2.01-.53c.822-.8,1.726-1.516,2.549-2.316a.622.622,0,0,0,.205-.723c3.231,1.717,7.281,1.257,11.185.933a33.887,33.887,0,0,0-2.184,4.948c-.264.712,2.523.369,2.819-.431A32.757,32.757,0,0,1,34,59.785c3.765.116,7.527.121,11.287.051a1.1,1.1,0,0,0,.751.333,35.249,35.249,0,0,0,9.75-.692c4.82-.227,9.638-.52,14.458-.8,7.575-.185,15.152-.344,22.732-.316q.149.16.316.314a1.327,1.327,0,0,0,.985.327c.062.009.13.016.2.019.719.036,1.437.086,2.155.144a1.852,1.852,0,0,0,.563.046H97.2c.786.065,1.572.14,2.361.206a1.158,1.158,0,0,0,.8.356c3.827.248,7.661.518,11.5.7a1.063,1.063,0,0,0,.825.341c7.111.059,15.375,2.777,21.7-1.719.5-.357.275-.868-.266-.974a1.939,1.939,0,0,0-.327-.034c.007-.016.017-.03.022-.045a59.429,59.429,0,0,0,2.963-8.469,1.07,1.07,0,0,0,.651-.852,33.456,33.456,0,0,1,.373-3.6q.251-1.315.444-2.635c.389-2.148.811-4.325,1.025-6.477a50.633,50.633,0,0,0,6.664-3.782C147.5,31.112,145.138,30.353,144.084,31.092ZM88.4,16.192a1.131,1.131,0,0,0-.135.122c.072-.309.15-.617.23-.925H88.6C88.538,15.656,88.466,15.925,88.4,16.192Z"/><path d="M63.667,12.5c.128.194.566.215.758.215a2.994,2.994,0,0,0,1.113-.223c.407-.164,1.108-.554.775-1.06-.365-.557-.613-1.178-.981-1.737-.128-.194-.566-.215-.759-.215a2.974,2.974,0,0,0-1.112.224c-.407.163-1.108.553-.775,1.059C63.051,11.323,63.3,11.946,63.667,12.5Z"/><path d="M20.816,10.8c.217.641,1.118.641,1.659.5.475-.126,1.4-.61,1.183-1.248a4.592,4.592,0,0,0-.9-1.763,1.738,1.738,0,0,0-1.914-.15c-.415.188-1.185.83-.7,1.336A3.042,3.042,0,0,1,20.816,10.8Z"/><path d="M30.857,13.76c.848,0,3.093-1.264,1.194-1.264C31.2,12.5,28.957,13.76,30.857,13.76Z"/><path d="M123.349,12.155a2.363,2.363,0,0,0,1.062-.058,2.185,2.185,0,0,0,.948-.472,5.022,5.022,0,0,0,.966-1.167c.106-.2.175-.4,0-.581a1.122,1.122,0,0,0-.769-.249,2.75,2.75,0,0,0-1.113.218,1.556,1.556,0,0,0-.76.548,3,3,0,0,1-.354.508l-.023.027-.028.032c-.064.066-.132.132-.2.2-.159.156-.348.361-.281.608S123.133,12.11,123.349,12.155Z"/><path d="M136.733,17.52a3.676,3.676,0,0,0,1.906-.656,21.13,21.13,0,0,0,3.646-3.607c.29-.389-1.056-.241-1.125-.228a2.768,2.768,0,0,0-1.671.739,19.7,19.7,0,0,1-3.414,3.341C135.574,17.521,136.519,17.54,136.733,17.52Z"/><path d="M147.682,44.334h-4.9c-.62,0-1.484.462-1.566,1.128-.09.731.759.913,1.312.913h4.9c.621,0,1.485-.464,1.568-1.128C149.085,44.515,148.235,44.334,147.682,44.334Z"/><path d="M57.387,60.193c-.5.079-1.421.293-1.65.823a33.879,33.879,0,0,0-1.373,3.859c-.212.726,2.588.33,2.816-.448a33.857,33.857,0,0,1,1.372-3.858C58.776,60.048,57.58,60.162,57.387,60.193Z"/><path d="M62,62.759a4.619,4.619,0,0,0-2.01.53c-.142.083-.34.2-.34.386a3,3,0,0,1-.021.343.742.742,0,0,1-.126.283l.012-.014c-.064.081-.109.178.018.251a1.3,1.3,0,0,0,.717.06,4.808,4.808,0,0,0,1.106-.25,2.091,2.091,0,0,0,.8-.4.951.951,0,0,0,.286-.5,2.611,2.611,0,0,0,.05-.524C62.488,62.762,62.065,62.76,62,62.759Z"/><path d="M117.4,66.4c-.356-.679-3.063.328-2.841.751.849,1.62,1.951,3.091,2.942,4.63.438.683,3.06-.41,2.841-.749C119.354,69.492,118.25,68.021,117.4,66.4Z"/><path d="M121.519,64.084c-.3-.582-1.073-.558-1.634-.41-.353.093-1.495.591-1.207,1.159.393.772.784,1.543,1.176,2.317.3.581,1.075.556,1.634.41.352-.094,1.5-.593,1.207-1.161Z"/><path d="M5.7,42.686c-1.5.356-3.025.565-4.51.966-.54.145-1.351.635-1.167,1.305s1.135.7,1.675.557c1.485-.4,3.014-.609,4.511-.967.544-.128,1.347-.644,1.167-1.3C7.194,42.564,6.249,42.557,5.7,42.686Z"/><path d="M44.033,39.715c-.084-2.681-.517-5.343-.482-8.028.028-2.173.4-4.407-.365-6.49.047-.237.1-.472.142-.71.2-1.045-3.321-.492-3.874.463-.348.28-.526.615-.379.956.037.086.069.173.1.26a77.185,77.185,0,0,1-2.662,9.406c-.409,1.187-.9,2.347-1.318,3.53a35.306,35.306,0,0,1-1.669-3.375c-1.395-3.43-2.653-6.9-4.354-10.2.193-1.528-3.253-1.368-3.932.032a8.509,8.509,0,0,0-.445,5.211,44.552,44.552,0,0,1,.383,6.107c.048,3.973.363,7.938.424,11.911a.991.991,0,0,0-.093,1.374,3.148,3.148,0,0,0,.58.549c.919.723,3.556.106,3.551-1.271-.014-4.12-.316-8.231-.427-12.35-.011-.4-.018-.806-.024-1.21.058.145.116.29.174.434a33.7,33.7,0,0,0,2.219,4.65,21.167,21.167,0,0,1,1.831,4.673.765.765,0,0,0-.236.708c-.04.179.071.291.255.359.649.547,1.87.274,2.548-.007a6.26,6.26,0,0,0,.839-.423c.35-.212.9-.679.74-1.159-.03-.092-.059-.185-.089-.278a23.97,23.97,0,0,0,.981-3.926,24.558,24.558,0,0,1,1.315-4.13c.053.619.108,1.238.158,1.855.207,2.551.033,5.067.008,7.62a11.462,11.462,0,0,0,.222,2.46,10.423,10.423,0,0,1,.285,1.886c-.621.563-.441,1.255.391,1.435a3.411,3.411,0,0,0,2.813-.742c1.217-1.105.642-2.842.366-4.239C43.551,44.719,44.107,42.1,44.033,39.715Z" fill="#fff"/><path d="M52.527,40.392c-.074-1.987-.776-3.859-.786-5.867a47.874,47.874,0,0,0-.157-6.881c-.108-.725-4.119.1-3.978,1.049a38.216,38.216,0,0,1,.162,6.35,38.545,38.545,0,0,0,.742,5.9c.273,2.053-.086,4.154.151,6.21.111.962.763,2.741.091,3.577-.427.533,1.492.341,1.578.328a3.957,3.957,0,0,0,2.339-1.039c.663-.827.2-2.424.054-3.354A54.06,54.06,0,0,1,52.527,40.392Z" fill="#fff"/><path d="M69.112,37.073c-2.094-2.781-5.981-.778-8.7-1.538-1.4-.392-1.416-2.27-1.412-3.395A34.558,34.558,0,0,0,58.726,28a3.364,3.364,0,0,1,.758-2.9,4.431,4.431,0,0,1,.822-.339,8.28,8.28,0,0,1,1.084-.093c1.572-.066,4.684.232,4.082,2.482-.271,1.009,3.652.431,3.938-.637,1.232-4.595-7.4-3.713-9.837-3.076-2.245.586-4.722,1.844-4.85,4.395-.062,1.218.276,2.378.33,3.585.061,1.389-.2,2.775.293,4.115,1.1,2.981,5.606,1.575,7.9,1.744,3.9.287,2.739,5.465,2.79,7.878.027,1.288,1.2,3.427.214,4.5-.6.662-2.013.7-2.835.766s-2.235.312-2.786-.46c-1.008-1.417.094-3.8-.122-5.421-.123-.924-4.13-.1-3.978,1.049.348,2.624-1.421,6.139,2.44,6.589a18.639,18.639,0,0,0,7.617-.926,9.012,9.012,0,0,0,3.293-1.793c1.052-.939.706-2.345.424-3.543C69.616,43,71.046,39.643,69.112,37.073Z" fill="#fff"/><path d="M86.707,36.886c-.122-3.775-.7-7.508-.716-11.289-.007-1.97-4.026-1.3-4.018.343.015,3.606.5,7.162.692,10.757l.011.22c-1.979-.018-3.958.177-5.942.246.2-4.63-.621-9.221-.44-13.847.021-.581-3.935-.09-3.979,1.049-.173,4.472.6,8.91.46,13.383-.064,2.133-.249,4.261-.264,6.4a21.25,21.25,0,0,0,.334,3.261,8.193,8.193,0,0,1,.184,3.316c-.24.771,3.617.29,3.922-.694.554-1.776-.225-4.037-.41-5.835a30.174,30.174,0,0,1,.085-5.245,30.7,30.7,0,0,1,6.173-.012q.136,2.066.327,4.131c.107,1.157.182,2.311.2,3.473A10.411,10.411,0,0,1,83.1,50c-.785,2.055,3.2,1.886,3.781.364.715-1.869.51-4.2.388-6.16C87.12,41.759,86.787,39.331,86.707,36.886Z" fill="#fff"/><path d="M103.9,41.356a73.106,73.106,0,0,0-3.672-7.792c1.016-1.948,2.049-3.9,2.978-5.884.844-1.806,1.469-3.817,3.127-5.089.583-.447.559-.9-.261-.951a4.574,4.574,0,0,0-2.813.742,10.754,10.754,0,0,0-3.249,4.265c-.946,2.049-1.926,4.061-2.959,6.07-.074.148-.151.3-.227.444a1.141,1.141,0,0,0-.649,1.265c-.8,1.563-1.624,3.115-2.537,4.608-.3-5.53-.969-11.054-1.168-16.588-.045-1.269-4.033-.479-3.977,1.049.247,6.863,1.237,13.71,1.306,20.573-.017.018-.033.034-.048.051-.306.307-.193.493.052.6,0,1.75-.06,3.5-.212,5.251-.48.745.47,1.138,1.1,1.138h.1c.751,0,2.665-.35,2.76-1.364a61.651,61.651,0,0,0,.236-6.286,31.4,31.4,0,0,0,4.119-5.632,29.233,29.233,0,0,1,2.02,4.58c.874,2.739,2.335,5.256,3.179,8.008.554,1.8,4.526.738,3.977-1.049C106.239,46.615,104.847,44.072,103.9,41.356Z" fill="#fff"/><path d="M127.775,36.725c-.213-.832-1.394-.849-2.307-.769-.014-.335-.022-.67-.036-1.006-.128-2.66-.169-5.375-.4-8.026-.212-2.455-1.609-3.335-4.034-3.244a25.012,25.012,0,0,0-7.6,1.4,7.014,7.014,0,0,0-4.631,5.677c-.56,3.011.243,6.214.379,9.24.156,3.5.065,7.009.062,10.511,0,.573,3.977.031,3.978-1.05,0-2.774.043-5.547,0-8.319-.014-.818-.052-1.632-.1-2.442,1.391-.594,3.745.013,5.13.142a15.694,15.694,0,0,0,3.293-.291c.022,2.31.11,4.633.206,6.94.049,1.182.484,3.528-.358,4.507-.443.517,1.5.345,1.577.331a4.031,4.031,0,0,0,2.34-1.041c.965-1.117.464-3.787.408-5.121-.08-1.91-.1-3.822-.145-5.733C126.71,38.28,127.994,37.574,127.775,36.725Zm-14.847-.15c-.106-1.246-.221-2.49-.308-3.741-.162-2.329.118-5.579,2.325-6.993a7.366,7.366,0,0,1,2.392-.438,3.779,3.779,0,0,1,2.872.19c1.23.8.926,3.654.924,4.865,0,2,.212,4,.316,6a14.339,14.339,0,0,1-1.709.077C117.419,36.479,115.127,36.12,112.928,36.575Z" fill="#fff"/><path d="M49.084,24.931a3.247,3.247,0,0,0,1.5-.524l.262-.217c.527-.335.985-.826.739-1.36a7.587,7.587,0,0,1-.423-3.412c.007-.957-.978-1.245-1.809-1.173-.734.063-2.2.58-2.208,1.519a15.693,15.693,0,0,0,.111,2.991,2.348,2.348,0,0,0-.106.355.682.682,0,0,0,.145.589c0,.045,0,.089,0,.134.005.112.011.224.015.335a.9.9,0,0,0,.436.53A2.232,2.232,0,0,0,49.084,24.931Z" fill="#fff"/></g></svg>