<svg xmlns="http://www.w3.org/2000/svg" width="112" height="46" viewBox="0 0 112 46"><g transform="translate(0 0)"><path d="M109.847,41.8c4.378.866.839-35.79.146-38.238-1.953-6.557-26.585-2.14-32.069-1.715-12.678.985-25.1-.958-37.481-.374C34.26,1.766,5.71-.335,3.054,3.456-1.976,10.65.412,29.2,1.781,38.466c-4.029.778,2.3,4.146,3.127,4.888,6.292,2.188,16.3-.219,22.927.394,15.381,1.469,31.687-2.19,47.112-.953,4.48,1.142,9.571,1.017,14.175,1.238,3.4,5.561,19.6-2.456,20.724-2.232C109.746,41.782,110.351,41.9,109.847,41.8Z"/><path d="M25.969,24.364c-.079-2.541-.482-5.065-.449-7.61.026-2.06.369-4.177-.34-6.152.044-.225.091-.448.132-.674.182-.989-3.092-.466-3.607.44-.324.265-.489.583-.353.905.035.082.065.165.1.247a74.354,74.354,0,0,1-2.478,8.915c-.381,1.126-.84,2.225-1.228,3.348a33.757,33.757,0,0,1-1.555-3.2c-1.3-3.251-2.469-6.538-4.054-9.667.18-1.449-3.028-1.3-3.661.03a8.21,8.21,0,0,0-.415,4.939,43.051,43.051,0,0,1,.358,5.789c.045,3.765.338,7.523.395,11.29a.951.951,0,0,0-.087,1.3,2.959,2.959,0,0,0,.54.519c.855.686,3.312.1,3.307-1.2-.013-3.9-.294-7.8-.4-11.7-.01-.381-.017-.765-.023-1.147.055.137.109.274.162.41a32.144,32.144,0,0,0,2.066,4.408,20.343,20.343,0,0,1,1.706,4.43.733.733,0,0,0-.22.672c-.038.169.067.275.237.341.6.518,1.741.261,2.373-.008a5.707,5.707,0,0,0,.781-.4c.326-.2.836-.643.69-1.1-.029-.089-.056-.176-.083-.264a23.052,23.052,0,0,0,.914-3.721A23.442,23.442,0,0,1,22,21.582c.049.586.1,1.174.146,1.759.193,2.417.031,4.8.008,7.223A11.093,11.093,0,0,0,22.36,32.9a10.017,10.017,0,0,1,.265,1.787.735.735,0,0,0,.365,1.361,3.141,3.141,0,0,0,2.619-.7c1.133-1.048.6-2.695.342-4.017C25.519,29.107,26.038,26.623,25.969,24.364Z" fill="#fff"/><path d="M33.877,25c-.069-1.883-.722-3.659-.731-5.562A46.243,46.243,0,0,0,33,12.921c-.1-.688-3.835.095-3.7.994a36.875,36.875,0,0,1,.15,6.018,36.995,36.995,0,0,0,.692,5.592c.253,1.946-.081,3.938.141,5.886.1.911.71,2.6.084,3.393-.4.5,1.389.321,1.469.308a3.654,3.654,0,0,0,2.178-.985c.618-.783.185-2.3.051-3.179A52.049,52.049,0,0,1,33.877,25Z" fill="#fff"/><path d="M49.321,21.859c-1.95-2.636-5.57-.738-8.1-1.458-1.3-.371-1.318-2.151-1.314-3.217a33.6,33.6,0,0,0-.259-3.928,3.231,3.231,0,0,1,.706-2.75,4.167,4.167,0,0,1,.765-.321,7.646,7.646,0,0,1,1.009-.088c1.464-.063,4.362.22,3.8,2.353-.252.956,3.4.408,3.666-.6,1.147-4.356-6.89-3.519-9.159-2.915-2.091.555-4.4,1.748-4.516,4.166-.058,1.154.257,2.253.308,3.4a12.626,12.626,0,0,0,.272,3.9c1.023,2.826,5.22,1.492,7.355,1.653,3.637.271,2.551,5.181,2.6,7.467.025,1.221,1.117,3.249.2,4.27-.564.626-1.874.663-2.64.728s-2.082.3-2.595-.438c-.939-1.342.088-3.6-.113-5.136-.115-.877-3.846-.091-3.705.993.325,2.487-1.323,5.819,2.271,6.246a17.068,17.068,0,0,0,7.093-.879,8.364,8.364,0,0,0,3.066-1.7c.979-.89.657-2.224.395-3.36C49.79,27.476,51.122,24.294,49.321,21.859Z" fill="#fff"/><path d="M65.706,21.681c-.115-3.577-.652-7.117-.667-10.7-.007-1.867-3.749-1.236-3.741.324.013,3.418.469,6.788.643,10.2l.012.209c-1.844-.017-3.686.169-5.534.234.191-4.389-.578-8.74-.41-13.125.021-.551-3.664-.085-3.705.994-.16,4.239.556,8.444.429,12.685-.06,2.022-.231,4.037-.246,6.063a20.618,20.618,0,0,0,.312,3.091A7.922,7.922,0,0,1,52.97,34.8c-.223.73,3.367.274,3.652-.658.514-1.684-.21-3.827-.381-5.531a29.112,29.112,0,0,1,.078-4.972,28.161,28.161,0,0,1,5.749-.011q.126,1.958.3,3.917c.1,1.1.17,2.191.185,3.292a9.982,9.982,0,0,1-.209,3.276c-.73,1.949,2.981,1.789,3.522.346.665-1.772.474-3.976.362-5.839C66.089,26.3,65.78,24,65.706,21.681Z" fill="#fff"/><path d="M81.718,25.918A70.353,70.353,0,0,0,78.3,18.533c.947-1.847,1.908-3.693,2.772-5.577.786-1.712,1.369-3.617,2.912-4.824.543-.422.521-.847-.242-.9a4.2,4.2,0,0,0-2.62.7A10.193,10.193,0,0,0,78.1,11.976c-.882,1.942-1.795,3.85-2.755,5.754q-.1.21-.211.42a1.087,1.087,0,0,0-.6,1.2c-.747,1.481-1.512,2.953-2.363,4.367-.282-5.24-.9-10.476-1.089-15.722-.041-1.2-3.754-.454-3.7.994.23,6.5,1.152,13,1.217,19.5-.016.017-.031.034-.047.048-.284.292-.177.468.051.571,0,1.657-.057,3.316-.2,4.976-.446.708.437,1.079,1.025,1.079h.092c.7,0,2.481-.33,2.57-1.292.181-1.988.236-3.973.22-5.96a29.757,29.757,0,0,0,3.835-5.337,27.952,27.952,0,0,1,1.88,4.341c.813,2.6,2.174,4.983,2.961,7.591.515,1.71,4.214.7,3.7-.994C83.894,30.9,82.6,28.493,81.718,25.918Z" fill="#fff"/><path d="M103.946,21.529c-.2-.79-1.3-.805-2.15-.731-.011-.317-.019-.635-.033-.953-.12-2.521-.157-5.094-.37-7.608-.2-2.327-1.5-3.162-3.756-3.074a22.935,22.935,0,0,0-7.076,1.328,6.619,6.619,0,0,0-4.311,5.381c-.521,2.855.225,5.89.352,8.758.146,3.318.063,6.642.059,9.962,0,.544,3.7.03,3.7-.994,0-2.628.041-5.258,0-7.886-.013-.776-.049-1.546-.1-2.314,1.3-.563,3.487.011,4.775.133a14.384,14.384,0,0,0,3.068-.275c.02,2.19.1,4.393.191,6.579.046,1.12.451,3.345-.334,4.271-.414.491,1.4.326,1.469.314a3.74,3.74,0,0,0,2.178-.986c.9-1.06.431-3.59.38-4.855-.075-1.811-.1-3.623-.135-5.433C102.955,23,104.15,22.334,103.946,21.529Zm-13.824-.143c-.1-1.181-.206-2.36-.288-3.546-.149-2.207.112-5.288,2.164-6.628a6.777,6.777,0,0,1,2.228-.415,3.465,3.465,0,0,1,2.675.181c1.145.761.862,3.463.861,4.611,0,1.9.2,3.79.293,5.686a12.9,12.9,0,0,1-1.59.073C94.3,21.3,92.168,20.955,90.122,21.386Z" fill="#fff"/><path d="M30.672,10.35a3,3,0,0,0,1.4-.5l.243-.207c.491-.317.917-.783.688-1.288a7.318,7.318,0,0,1-.394-3.235c.007-.906-.911-1.18-1.683-1.112-.684.06-2.051.55-2.057,1.44a15.036,15.036,0,0,0,.1,2.835,2.115,2.115,0,0,0-.1.335.656.656,0,0,0,.135.559c0,.042,0,.085,0,.127,0,.106.01.213.014.317a.854.854,0,0,0,.406.5A2.051,2.051,0,0,0,30.672,10.35Z" fill="#fff"/></g></svg>