<svg xmlns="http://www.w3.org/2000/svg" width="60" height="60" viewBox="0 0 60 60"><g transform="translate(-1027 -1115)"><g transform="translate(1027 1115)"><path d="M0,43.96,27.439,60V36.5L0,20.459ZM51.347,12.516v2.469c0,1.829-3.458,3.311-7.73,3.311s-7.727-1.482-7.727-3.311V10.9h.025c.259,1.725,3.6,3.092,7.7,3.092,4.272,0,7.729-1.483,7.729-3.3s-3.457-3.31-7.729-3.31c-.339,0-.675.01-1,.03L37.64,4.5V7.607c0,1.828-3.454,3.31-7.722,3.31a12.583,12.583,0,0,1-6.433-1.476,3.966,3.966,0,0,0-.732-.59,1.816,1.816,0,0,1-.565-1.244V4.6l-4.808,2.81c-.346-.017-.7-.033-1.053-.033-4.267,0-7.727,1.478-7.727,3.31s3.46,3.3,7.727,3.3c4.1,0,7.446-1.367,7.7-3.092h.022v4.084c0,1.829-3.455,3.311-7.726,3.311S8.6,16.814,8.6,14.985V12.55L2.647,16.023,30.179,32.112,57.53,16.127ZM37.7,22.748c0,1.828-3.46,3.307-7.727,3.307s-7.729-1.479-7.729-3.307V18.662h.024c.26,1.726,3.6,3.1,7.705,3.1s7.443-1.37,7.705-3.1H37.7v4.086Zm-5.146,13.96V60L60,43.96V20.669ZM29.917,6.614c4.269,0,7.723-1.478,7.723-3.306S34.186,0,29.917,0s-7.729,1.481-7.729,3.308,3.46,3.306,7.729,3.306" fill="#231f20"/></g><path d="M1059.557,1151.708l27.443-16.04v23.291L1059.557,1175ZM1027,1158.96v-23.5l27.438,16.042v23.495Zm2.646-27.937,5.952-3.473v2.435c0,1.829,3.461,3.311,7.727,3.311s7.726-1.482,7.726-3.311V1125.9h-.022c-.258,1.725-3.605,3.092-7.7,3.092-4.267,0-7.727-1.483-7.727-3.3s3.461-3.31,7.727-3.31c.356,0,.707.016,1.053.033l4.808-2.81v3.006a1.817,1.817,0,0,0,.565,1.244,3.986,3.986,0,0,1,.732.59,12.592,12.592,0,0,0,6.433,1.476c4.268,0,7.722-1.482,7.722-3.31v-3.1l4.975,2.906c.328-.02.663-.031,1-.031,4.271,0,7.728,1.479,7.728,3.31s-3.457,3.3-7.728,3.3c-4.1,0-7.444-1.366-7.7-3.092h-.025v4.084c0,1.829,3.461,3.311,7.727,3.311s7.73-1.482,7.73-3.311v-2.469l6.183,3.611-27.352,15.984Zm19.6,6.726c0,1.827,3.46,3.307,7.729,3.307s7.727-1.48,7.727-3.307v-4.086h-.022c-.262,1.725-3.6,3.1-7.7,3.1s-7.446-1.37-7.706-3.1h-.023Zm-.06-19.441c0-1.826,3.46-3.307,7.729-3.307s7.723,1.481,7.723,3.307-3.454,3.307-7.723,3.307S1049.187,1120.135,1049.187,1118.308Z" fill="#149080"/></g></svg>