<svg xmlns="http://www.w3.org/2000/svg" width="771" height="15" viewBox="0 0 771 15"><path d="M738.984,1452.6c-2.288-2.167-3.94-3.733-7.531-3.733s-5.244,1.566-7.532,3.733c-2.539,2.4-5.7,5.4-11.742,5.4s-9.2-2.992-11.741-5.4c-2.288-2.167-3.94-3.733-7.532-3.733s-5.244,1.566-7.533,3.733c-2.538,2.4-5.7,5.4-11.741,5.4s-9.2-2.992-11.742-5.4c-2.288-2.167-3.94-3.733-7.532-3.733s-5.244,1.566-7.532,3.733c-2.538,2.4-5.7,5.4-11.741,5.4s-9.2-2.992-11.741-5.4c-2.288-2.167-3.94-3.733-7.533-3.733s-5.245,1.566-7.533,3.733c-2.538,2.4-5.7,5.4-11.741,5.4s-9.2-2.992-11.741-5.4c-2.288-2.167-3.94-3.733-7.533-3.733s-5.245,1.566-7.533,3.733c-2.538,2.4-5.7,5.4-11.741,5.4s-9.2-2.992-11.741-5.4c-2.287-2.167-3.939-3.733-7.53-3.733s-5.245,1.566-7.533,3.733c-2.538,2.4-5.7,5.4-11.742,5.4s-9.2-2.992-11.74-5.4c-2.286-2.166-3.939-3.732-7.53-3.732s-5.244,1.566-7.532,3.733c-2.537,2.4-5.7,5.4-11.741,5.4s-9.2-2.992-11.741-5.4c-2.288-2.167-3.94-3.733-7.532-3.733s-5.243,1.565-7.53,3.732c-2.538,2.406-5.7,5.4-11.741,5.4s-9.2-2.992-11.742-5.4c-2.287-2.167-3.94-3.733-7.531-3.733s-5.245,1.566-7.533,3.733c-2.538,2.4-5.7,5.4-11.743,5.4s-9.2-2.992-11.741-5.4c-2.288-2.167-3.94-3.733-7.532-3.733s-5.244,1.566-7.531,3.733c-2.539,2.4-5.7,5.4-11.742,5.4s-9.2-2.992-11.742-5.4c-2.287-2.167-3.939-3.733-7.531-3.733s-5.245,1.566-7.532,3.733c-2.538,2.4-5.7,5.4-11.741,5.4s-9.205-2.992-11.743-5.4c-2.288-2.167-3.94-3.733-7.532-3.733s-5.245,1.566-7.533,3.733c-2.539,2.4-5.7,5.4-11.744,5.4s-9.2-2.992-11.742-5.4c-2.287-2.167-3.94-3.733-7.533-3.733s-5.244,1.566-7.532,3.733c-2.539,2.4-5.7,5.4-11.743,5.4s-9.2-2.992-11.742-5.4c-2.288-2.167-3.94-3.733-7.533-3.733s-5.245,1.566-7.533,3.733c-2.538,2.4-5.7,5.4-11.742,5.4s-9.205-2.992-11.743-5.4c-2.288-2.167-3.94-3.733-7.533-3.733s-5.246,1.566-7.534,3.733c-2.538,2.4-5.7,5.4-11.743,5.4s-9.2-2.992-11.741-5.4c-2.288-2.167-3.94-3.733-7.532-3.733s-5.244,1.566-7.532,3.733c-2.538,2.4-5.7,5.4-11.742,5.4s-9.2-2.992-11.743-5.4c-2.287-2.167-3.94-3.733-7.533-3.733s-5.246,1.566-7.533,3.733c-2.539,2.4-5.7,5.4-11.744,5.4s-9.205-2.992-11.743-5.4c-2.289-2.167-3.942-3.733-7.536-3.733s-5.246,1.566-7.534,3.733c-2.539,2.4-5.7,5.4-11.745,5.4s-9.205-2.992-11.744-5.4c-2.288-2.167-3.94-3.733-7.534-3.733s-5.248,1.566-7.536,3.733c-2.539,2.4-5.7,5.4-11.746,5.4s-9.205-2.992-11.744-5.4c-2.289-2.167-3.942-3.733-7.537-3.733V1443c6.047,0,9.206,2.993,11.745,5.4,2.289,2.167,3.942,3.733,7.536,3.733s5.248-1.566,7.536-3.733c2.54-2.4,5.7-5.4,11.746-5.4s9.205,2.993,11.744,5.4c2.288,2.167,3.941,3.733,7.534,3.733s5.247-1.566,7.535-3.733c2.539-2.4,5.7-5.4,11.744-5.4s9.206,2.993,11.744,5.4c2.289,2.167,3.941,3.733,7.535,3.733s5.246-1.566,7.533-3.733c2.539-2.4,5.7-5.4,11.744-5.4s9.2,2.993,11.743,5.4c2.287,2.167,3.94,3.733,7.533,3.733s5.244-1.566,7.532-3.733c2.538-2.4,5.7-5.4,11.742-5.4s9.2,2.993,11.741,5.4c2.288,2.167,3.94,3.733,7.532,3.733s5.246-1.566,7.534-3.733c2.539-2.4,5.7-5.4,11.743-5.4s9.205,2.993,11.743,5.4c2.288,2.167,3.94,3.733,7.533,3.733s5.244-1.566,7.532-3.733c2.539-2.4,5.7-5.4,11.743-5.4s9.2,2.993,11.743,5.4c2.287,2.167,3.94,3.733,7.532,3.733s5.245-1.566,7.533-3.733c2.538-2.4,5.7-5.4,11.742-5.4s9.2,2.993,11.743,5.4c2.287,2.167,3.94,3.733,7.532,3.733s5.246-1.566,7.534-3.733c2.539-2.4,5.7-5.4,11.743-5.4s9.2,2.993,11.742,5.4c2.288,2.167,3.94,3.733,7.533,3.733s5.244-1.566,7.531-3.733c2.538-2.4,5.7-5.4,11.742-5.4s9.2,2.993,11.741,5.4c2.287,2.167,3.94,3.733,7.532,3.733s5.244-1.566,7.531-3.733c2.539-2.4,5.7-5.4,11.742-5.4s9.2,2.993,11.742,5.4c2.287,2.167,3.94,3.733,7.531,3.733s5.246-1.566,7.533-3.733c2.539-2.4,5.7-5.4,11.743-5.4s9.2,2.993,11.741,5.4c2.288,2.167,3.94,3.733,7.532,3.733s5.244-1.566,7.531-3.733c2.538-2.4,5.7-5.4,11.74-5.4s9.2,2.993,11.742,5.4c2.287,2.166,3.939,3.732,7.53,3.732s5.245-1.566,7.532-3.732c2.537-2.4,5.7-5.4,11.741-5.4s9.2,2.993,11.741,5.4c2.287,2.166,3.939,3.732,7.53,3.732s5.245-1.566,7.533-3.733c2.538-2.4,5.7-5.4,11.742-5.4s9.2,2.993,11.74,5.4c2.287,2.167,3.939,3.732,7.53,3.732s5.244-1.566,7.532-3.733c2.538-2.4,5.7-5.4,11.742-5.4s9.2,2.993,11.742,5.4c2.288,2.167,3.94,3.733,7.532,3.733s5.244-1.566,7.532-3.733c2.538-2.4,5.7-5.4,11.742-5.4s9.2,2.993,11.742,5.4c2.288,2.167,3.94,3.733,7.532,3.733s5.244-1.566,7.532-3.733c2.538-2.4,5.7-5.4,11.741-5.4s9.2,2.993,11.741,5.4c2.289,2.167,3.94,3.733,7.533,3.733s5.244-1.566,7.532-3.733c2.538-2.4,5.7-5.4,11.742-5.4s9.2,2.993,11.741,5.4c2.289,2.167,3.94,3.733,7.532,3.733s5.244-1.566,7.532-3.733c2.538-2.4,5.7-5.4,11.742-5.4s9.2,2.993,11.741,5.4c2.288,2.167,3.94,3.733,7.532,3.733s5.244-1.566,7.532-3.733c2.538-2.4,5.7-5.4,11.742-5.4v5.87c-3.592,0-5.244,1.566-7.532,3.733-2.539,2.4-5.7,5.4-11.742,5.4S741.522,1455.008,738.984,1452.6Z" transform="translate(1 -1443)" fill="#f1f1f1"/></svg>