<svg xmlns="http://www.w3.org/2000/svg" width="1250" height="34" viewBox="0 0 1250 34"><g transform="translate(0 -817)"><g transform="translate(0 817)"><path d="M1218.752,0c-15.625,0-15.625,14-31.249,14s-15.624-14-31.248-14-15.624,14-31.248,14-15.625-14-31.25-14-15.624,14-31.248,14-15.624-14-31.248-14-15.624,14-31.249,14S984.388,0,968.764,0,953.14,14,937.515,14,921.89,0,906.265,0s-15.621,14-31.243,14S859.4,0,843.772,0,828.15,14,812.528,14,796.9,0,781.281,0s-15.623,14-31.247,14S734.413,0,718.79,0s-15.624,14-31.248,14S671.917,0,656.291,0s-15.624,14-31.248,14S609.42,0,593.8,0s-15.624,14-31.248,14S546.924,0,531.3,0s-15.625,14-31.25,14S484.424,0,468.8,0s-15.625,14-31.25,14S421.922,0,406.3,0s-15.625,14-31.25,14S359.42,0,343.795,0s-15.626,14-31.252,14S296.916,0,281.289,0s-15.623,14-31.247,14S234.417,0,218.792,0s-15.625,14-31.251,14S171.914,0,156.287,0,140.66,14,125.032,14,109.4,0,93.775,0,78.147,14,62.52,14,46.89,0,31.26,0,15.63,14,0,14V34H1250V14C1234.376,14,1234.376,0,1218.752,0Z" fill="#fff"/></g><path d="M0,851V831c15.63,0,15.63-14,31.26-14s15.63,14,31.26,14,15.628-14,31.255-14,15.628,14,31.257,14,15.629-14,31.255-14,15.628,14,31.254,14,15.627-14,31.252-14,15.625,14,31.25,14,15.624-14,31.246-14,15.628,14,31.253,14,15.627-14,31.253-14,15.625,14,31.251,14,15.625-14,31.251-14,15.626,14,31.251,14,15.625-14,31.25-14,15.628,14,31.253,14,15.625-14,31.25-14,15.624,14,31.248,14,15.624-14,31.248-14,15.624,14,31.248,14,15.624-14,31.248-14,15.626,14,31.251,14,15.624-14,31.248-14,15.622,14,31.244,14,15.624-14,31.247-14,15.622,14,31.246,14,15.622-14,31.243-14,15.625,14,31.25,14,15.623-14,31.243-14,15.625,14,31.251,14,15.625-14,31.249-14,15.623,14,31.249,14,15.625-14,31.249-14,15.623,14,31.247,14,15.624-14,31.248-14,15.625,14,31.25,14,15.624-14,31.248-14,15.624,14,31.248,14,15.624-14,31.249-14,15.624,14,31.248,14v20Z" fill="#fff"/></g></svg>